<?xml version="1.0" encoding="UTF-8" standalone="no"?>
<!-- Created with Inkscape (http://www.inkscape.org/) -->

<svg
   width="210mm"
   height="297mm"
   viewBox="0 0 210 297"
   version="1.1"
   id="svg1"
   xml:space="preserve"
   inkscape:version="1.3 (0e150ed6c4, 2023-07-21)"
   sodipodi:docname="schleppbeine_ventral.svg"
   inkscape:export-filename="schleppbeine_ventral.png"
   inkscape:export-xdpi="177.7117"
   inkscape:export-ydpi="177.7117"
   xmlns:inkscape="http://www.inkscape.org/namespaces/inkscape"
   xmlns:sodipodi="http://sodipodi.sourceforge.net/DTD/sodipodi-0.dtd"
   xmlns="http://www.w3.org/2000/svg"
   xmlns:svg="http://www.w3.org/2000/svg"><sodipodi:namedview
     id="namedview1"
     pagecolor="#505050"
     bordercolor="#eeeeee"
     borderopacity="1"
     inkscape:showpageshadow="0"
     inkscape:pageopacity="0"
     inkscape:pagecheckerboard="0"
     inkscape:deskcolor="#505050"
     inkscape:document-units="mm"
     inkscape:zoom="2.1595378"
     inkscape:cx="180.5942"
     inkscape:cy="419.53422"
     inkscape:window-width="1920"
     inkscape:window-height="1051"
     inkscape:window-x="0"
     inkscape:window-y="29"
     inkscape:window-maximized="1"
     inkscape:current-layer="layer5"
     inkscape:export-bgcolor="#ffffffff" /><defs
     id="defs1" /><g
     inkscape:groupmode="layer"
     id="layer5"
     inkscape:label="Schleppbeine ventral"><path
       style="fill:none;stroke:#000000;stroke-width:0.686;stroke-dasharray:none;stroke-opacity:1"
       d="m 84.951482,77.096249 c -0.489381,3.805849 -1.725386,5.904746 -2.850676,8.256752 0.04307,1.449954 0.08281,2.84743 0.206881,5.571557 0.553381,1.812932 0.58405,3.723543 0.619899,5.633178 l 0.431233,0.367011 c 0.557639,0.05173 1.148496,-0.417513 1.73148,-0.763133 0.359716,-0.809559 1.204657,-1.458085 2.096387,-2.091081 l 0.165114,0.318458 c 0.25264,0.105896 0.510122,-0.03944 0.782213,-0.415556 0.730361,0.65487 1.569831,1.347146 1.612629,1.766311 0.394312,-0.666585 0.916991,-1.350725 2.178209,-2.135865 0.02271,-5.520122 0.904318,-11.305324 -0.23084,-16.468042"
       id="path2"
       sodipodi:nodetypes="cccccccccccc" /><path
       style="fill:none;stroke:#000000;stroke-width:0.686;stroke-dasharray:none;stroke-opacity:1"
       d="m 69.361111,84.029916 c 2.327258,5.420268 10.779686,4.43094 12.688211,1.238301"
       id="path3"
       sodipodi:nodetypes="cc" /><path
       style="fill:none;stroke:#000000;stroke-width:0.686;stroke-dasharray:none;stroke-opacity:1"
       d="m 68.724662,90.913448 0.619372,1.287582 -0.476161,1.9182 c 0.324537,1.660073 1.76726,2.212889 2.671393,4.380235 2.538717,3.034655 7.233768,2.143635 9.505976,-1.508466 l 1.877129,-1.145746"
       id="path4"
       sodipodi:nodetypes="cccccc" /><path
       style="fill:none;stroke:#000000;stroke-width:0.233567;stroke-dasharray:none;stroke-opacity:1"
       d="m 75.80689,88.793801 c -4.740095,1.087487 -3.165887,3.025202 -3.965468,5.042706 1.670375,1.383498 2.533626,4.288801 4.52222,4.129309 3.143517,-0.25037 2.831665,-4.482543 3.337522,-4.832979 -0.923507,-2.721973 -0.294358,-3.949129 -3.943258,-4.43095"
       id="path5"
       sodipodi:nodetypes="ccccc" /><path
       style="fill:none;stroke:#000000;stroke-width:0.233567;stroke-dasharray:none;stroke-opacity:1"
       d="m 76.075756,91.729277 c -0.325426,0.562824 0.04752,1.451173 -1.158517,1.354639 -0.426876,-0.03417 1.062199,-0.19138 1.058162,1.645345 0.02129,-0.601786 0.249596,-1.740681 0.895676,-1.446096 -1.06026,0.112624 -0.783207,-0.821583 -0.795321,-1.553888 z"
       id="path6"
       sodipodi:nodetypes="csccc" /><path
       style="fill:none;stroke:#000000;stroke-width:0.686;stroke-dasharray:none;stroke-opacity:1"
       d="m 89.705438,95.646301 c -0.81097,0.59239 -0.646673,1.771151 -0.638848,2.85583 2.150998,8.229589 2.269219,17.728119 1.847285,27.563829 0.157208,1.68136 0.939422,3.67311 -0.730336,4.44718 -0.108717,0.8438 -0.236552,1.67829 0.246728,2.81075"
       id="path7"
       sodipodi:nodetypes="ccccc" /><path
       style="fill:none;stroke:#000000;stroke-width:0.686;stroke-dasharray:none;stroke-opacity:1"
       d="m 76.488312,100.2011 c -1.535988,8.65644 -0.993135,16.687 -0.652606,24.77848 -0.833386,2.20183 -1.851046,3.97492 -2.25342,6.40066 1.514489,-0.24798 2.162825,-0.7619 3.149374,-1.41008 l 1.499251,1.07442 c 3.984761,-0.17193 7.998265,0.82633 11.952204,-0.60028"
       id="path8"
       sodipodi:nodetypes="cccccc" /><path
       style="fill:none;stroke:#000000;stroke-width:0.686;stroke-dasharray:none;stroke-opacity:1"
       d="m 78.193882,131.00247 -0.605974,2.38501 v -0.01"
       id="path9" /><path
       style="fill:none;stroke:#000000;stroke-width:0.686;stroke-dasharray:none;stroke-opacity:1"
       d="m 71.617083,98.485448 c 1.056019,10.020732 -1.216677,19.449542 -1.961216,29.150102 -0.548825,1.07713 -0.970614,2.32477 -2.008127,2.74601 -3.899071,-0.0624 -7.621479,0.21296 -12.098664,-0.95473 -0.556217,-0.52237 -1.024698,-1.22021 -1.285407,-2.33359 0.353994,-1.95841 1.052265,-3.91319 0.877956,-5.88498 -0.302443,-3.42121 0.291729,-7.65826 1.222744,-11.14901 1.21189,-4.54388 1.586913,-8.55349 3.355873,-13.15221 l -0.340258,-2.036483"
       id="path10"
       sodipodi:nodetypes="cccccsscc" /><path
       style="fill:none;stroke:#000000;stroke-width:0.686;stroke-dasharray:none;stroke-opacity:1"
       d="m 67.567606,130.32584 0.673138,3.05595"
       id="path11" /><path
       style="fill:none;stroke:#000000;stroke-width:0.686;stroke-dasharray:none;stroke-opacity:1"
       d="m 55.444131,129.30004 c 0.311281,1.25869 -0.235497,2.68398 -0.310755,4.00513"
       id="path12"
       sodipodi:nodetypes="cc" /><path
       style="fill:none;stroke:#000000;stroke-width:0.534;stroke-dasharray:none;stroke-opacity:1"
       d="m 69.757726,126.32854 c 0.548985,1.52346 1.116616,3.04865 1.375117,4.54513 l -0.596672,-0.39603 c -0.75336,0.14593 -1.33685,-0.37753 -1.946705,-0.7971"
       id="path13"
       sodipodi:nodetypes="cccc" /><path
       style="fill:none;stroke:#000000;stroke-width:0.534;stroke-dasharray:none;stroke-opacity:1"
       d="m 75.530269,109.61694 -1.110163,2.61148 0.978119,-0.26751"
       id="path14"
       sodipodi:nodetypes="ccc" /><path
       style="fill:none;stroke:#000000;stroke-width:0.534;stroke-dasharray:none;stroke-opacity:1"
       d="m 75.470845,117.83329 -1.294103,3.16309 c 0.401153,-0.12523 0.722527,-0.46708 1.396352,0.14805"
       id="path15"
       sodipodi:nodetypes="ccc" /><path
       style="fill:none;stroke:#000000;stroke-width:0.234;stroke-dasharray:none;stroke-opacity:1"
       d="m 70.20826,122.78552 0.449911,0.79396 -0.228279,-2.91811"
       id="path16" /><path
       style="fill:none;stroke:#000000;stroke-width:0.534;stroke-dasharray:none;stroke-opacity:1"
       d="m 70.542265,118.98342 1.234075,0.84314 -0.908249,-2.93362"
       id="path17" /><path
       style="fill:none;stroke:#000000;stroke-width:0.47;stroke-dasharray:none;stroke-opacity:1"
       d="m 70.873488,112.565 0.776053,2.47382 -1.769772,-1.04385"
       id="path18" /><path
       style="fill:none;stroke:#000000;stroke-width:0.233567;stroke-dasharray:none;stroke-opacity:1"
       d="m 70.166173,105.00415 0.788799,0.58854 0.07766,-1.38315"
       id="path19" /><path
       style="fill:none;stroke:#000000;stroke-width:0.233567;stroke-dasharray:none;stroke-opacity:1"
       d="m 64.848976,114.17362 0.298055,1.16653 0.559419,-0.90726"
       id="path20" /><path
       style="fill:none;stroke:#000000;stroke-width:0.233567;stroke-dasharray:none;stroke-opacity:1"
       d="m 65.976466,103.33572 0.427097,0.73967 0.412093,-0.95049"
       id="path21" /><path
       style="fill:none;stroke:#000000;stroke-width:0.233567;stroke-dasharray:none;stroke-opacity:1"
       d="m 61.045586,108.27947 0.363179,1.55172 0.538878,-0.69596"
       id="path22" /><path
       style="fill:none;stroke:#000000;stroke-width:0.233567;stroke-dasharray:none;stroke-opacity:1"
       d="m 60.213232,115.33583 0.03241,1.27171 0.697716,-0.37866"
       id="path23" /><path
       style="fill:none;stroke:#000000;stroke-width:0.233567;stroke-dasharray:none;stroke-opacity:1"
       d="m 59.387736,123.24528 0.12715,1.12738 0.460202,-0.61366"
       id="path24" /><path
       style="fill:none;stroke:#000000;stroke-width:0.233567;stroke-dasharray:none;stroke-opacity:1"
       d="m 64.919409,123.20637 0.25102,0.61706 0.473002,-1.1235"
       id="path25" /><path
       style="fill:none;stroke:#000000;stroke-width:0.233567;stroke-dasharray:none;stroke-opacity:1"
       d="m 77.718695,109.41588 -0.05506,1.29262 0.89292,-0.40367"
       id="path26" /><path
       style="fill:none;stroke:#000000;stroke-width:0.233567;stroke-dasharray:none;stroke-opacity:1"
       d="m 82.575285,106.72414 0.08976,1.11625 0.670881,-0.69371"
       id="path27" /><path
       style="fill:none;stroke:#000000;stroke-width:0.233567;stroke-dasharray:none;stroke-opacity:1"
       d="m 86.800923,108.21558 0.475338,0.62755 0.110498,-1.23451"
       id="path28" /><path
       style="fill:none;stroke:#000000;stroke-width:0.233567;stroke-dasharray:none;stroke-opacity:1"
       d="m 77.645845,116.66487 -0.172632,1.4545 0.886875,-0.69053"
       id="path29" /><path
       style="fill:none;stroke:#000000;stroke-width:0.233567;stroke-dasharray:none;stroke-opacity:1"
       d="m 83.227786,115.10145 0.10129,1.33318 0.770765,-0.78082"
       id="path30" /><path
       style="fill:none;stroke:#000000;stroke-width:0.233567;stroke-dasharray:none;stroke-opacity:1"
       d="m 88.231378,116.61332 0.03313,1.26631 -0.600587,-0.51357"
       id="path31" /><path
       style="fill:none;stroke:#000000;stroke-width:0.233567;stroke-dasharray:none;stroke-opacity:1"
       d="m 84.114264,123.62261 -0.0607,1.15392 0.659922,-0.55171"
       id="path32" /><path
       style="fill:none;stroke:#000000;stroke-width:0.233567;stroke-dasharray:none;stroke-opacity:1"
       d="m 76.806141,121.20939 -0.329321,2.12538 1.150902,-0.40448"
       id="path33" /><path
       style="fill:none;stroke:#000000;stroke-width:0.233567;stroke-dasharray:none;stroke-opacity:1"
       d="m 88.278816,124.16368 0.09664,0.97598 -0.679148,-0.27919"
       id="path34" /><path
       style="fill:none;stroke:#000000;stroke-width:0.334;stroke-dasharray:none;stroke-opacity:1"
       d="m 65.938438,95.56933 0.05724,1.403549 0.528271,-0.915228"
       id="path35"
       sodipodi:nodetypes="ccc" /><path
       style="fill:none;stroke:#000000;stroke-width:0.334;stroke-dasharray:none;stroke-opacity:1"
       d="m 67.142091,96.721613 -0.667962,0.64064 0.179841,-1.0242"
       id="path36"
       sodipodi:nodetypes="ccc" /><path
       style="fill:none;stroke:#000000;stroke-width:0.233567;stroke-dasharray:none;stroke-opacity:1"
       d="m 83.231517,96.856997 -0.06528,0.747062 0.639368,-0.674316 0.0061,0.575279 0.546346,-0.754973 0.08144,0.604821 0.493494,-0.970013"
       id="path37" /><path
       style="fill:none;stroke:#000000;stroke-width:0.686;stroke-dasharray:none;stroke-opacity:1"
       d="m 56.008366,77.054084 c -0.856192,5.415266 -0.30544,10.830532 0.09756,16.2458 1.060555,0.73179 2.096672,1.778559 3.228593,1.590633 0.152243,-0.658068 0.931601,-0.927053 1.626611,-1.24837 0.79225,0.331827 -0.327754,1.434164 3.572544,0.455525 0.45982,1.932957 1.924557,2.308914 2.906731,3.345476 l 0.182529,-3.764073 c 1.148699,-1.20138 1.270231,-5.968633 1.703861,-9.65242 -1.669155,-1.591217 -1.983703,-4.485685 -2.975842,-6.867659"
       id="path1"
       sodipodi:nodetypes="ccccccccc" /></g><g
     inkscape:groupmode="layer"
     id="layer6"
     inkscape:label="Beschriftung"
     style="display:inline"><text
       xml:space="preserve"
       style="font-size:3.175px;fill:#555555;fill-opacity:1;stroke:#555555;stroke-width:0.2;stroke-dasharray:none;stroke-opacity:1"
       x="98.909378"
       y="86.013924"
       id="text37"><tspan
         sodipodi:role="line"
         id="tspan37"
         style="fill:#555555;fill-opacity:1;stroke:#555555;stroke-width:0.2;stroke-dasharray:none;stroke-opacity:1"
         x="98.909378"
         y="86.013924">Coxopleuren</tspan></text><text
       xml:space="preserve"
       style="font-size:3.175px;fill:#555555;fill-opacity:1;stroke:#555555;stroke-width:0.2;stroke-dasharray:none;stroke-opacity:1"
       x="98.909378"
       y="80.193085"
       id="text38"><tspan
         sodipodi:role="line"
         id="tspan38"
         style="fill:#555555;fill-opacity:1;stroke:#555555;stroke-width:0.2;stroke-dasharray:none;stroke-opacity:1"
         x="98.909378"
         y="80.193085">21. Sternit</tspan></text><text
       xml:space="preserve"
       style="font-size:3.175px;fill:#555555;fill-opacity:1;stroke:#555555;stroke-width:0.2;stroke-dasharray:none;stroke-opacity:1"
       x="98.909378"
       y="91.834763"
       id="text39"><tspan
         sodipodi:role="line"
         id="tspan39"
         style="fill:#555555;fill-opacity:1;stroke:#555555;stroke-width:0.2;stroke-dasharray:none;stroke-opacity:1"
         x="98.909378"
         y="91.834763">Coxopleurenfortsatz</tspan></text><text
       xml:space="preserve"
       style="font-size:3.175px;fill:#555555;fill-opacity:1;stroke:#555555;stroke-width:0.2;stroke-dasharray:none;stroke-opacity:1"
       x="98.909378"
       y="98.713936"
       id="text40"><tspan
         sodipodi:role="line"
         id="tspan40"
         style="fill:#555555;fill-opacity:1;stroke:#555555;stroke-width:0.2;stroke-dasharray:none;stroke-opacity:1"
         x="98.909378"
         y="98.713936">Bedornung</tspan></text><text
       xml:space="preserve"
       style="font-size:3.175px;fill:#555555;fill-opacity:1;stroke:#555555;stroke-width:0.2;stroke-dasharray:none;stroke-opacity:1"
       x="98.909378"
       y="114.05974"
       id="text41"><tspan
         sodipodi:role="line"
         id="tspan41"
         style="fill:#555555;fill-opacity:1;stroke:#555555;stroke-width:0.2;stroke-dasharray:none;stroke-opacity:1"
         x="98.909378"
         y="114.05974">Prefemur</tspan></text><text
       xml:space="preserve"
       style="font-size:3.175px;fill:#555555;fill-opacity:1;stroke:#555555;stroke-width:0.2;stroke-dasharray:none;stroke-opacity:1"
       x="98.909378"
       y="129.93472"
       id="text42"><tspan
         sodipodi:role="line"
         id="tspan42"
         style="fill:#555555;fill-opacity:1;stroke:#555555;stroke-width:0.2;stroke-dasharray:none;stroke-opacity:1"
         x="98.909378"
         y="129.93472">Prefemuralfortsatz</tspan></text><path
       style="fill:#555555;fill-opacity:1;stroke:#555555;stroke-width:0.2;stroke-dasharray:none;stroke-opacity:1"
       d="M 76.83261,80.282522 98.543484,79.019965"
       id="path42" /><path
       style="fill:#555555;fill-opacity:1;stroke:#555555;stroke-width:0.2;stroke-dasharray:none;stroke-opacity:1"
       d="m 65.412373,84.364313 32.78505,0.402267"
       id="path43" /><path
       style="fill:#555555;fill-opacity:1;stroke:#555555;stroke-width:0.2;stroke-dasharray:none;stroke-opacity:1"
       d="M 86.991083,87.713943 98.200405,85.005388"
       id="path44" /><path
       style="fill:#555555;fill-opacity:1;stroke:#555555;stroke-width:0.2;stroke-dasharray:none;stroke-opacity:1"
       d="M 66.098586,94.186951 98.296888,90.484075"
       id="path45" /><path
       style="fill:#555555;fill-opacity:1;stroke:#555555;stroke-width:0.2;stroke-dasharray:none;stroke-opacity:1"
       d="M 84.237009,95.815276 98.214147,90.383803"
       id="path46" /><path
       style="fill:#555555;fill-opacity:1;stroke:#555555;stroke-width:0.2;stroke-dasharray:none;stroke-opacity:1"
       d="m 85.25611,97.120211 13.134297,0.837618"
       id="path47" /><path
       style="fill:#555555;fill-opacity:1;stroke:#555555;stroke-width:0.2;stroke-dasharray:none;stroke-opacity:1"
       d="M 76.332537,109.6292 98.177063,98.205077"
       id="path48" /><path
       style="fill:#555555;fill-opacity:1;stroke:#555555;stroke-width:0.2;stroke-dasharray:none;stroke-opacity:1"
       d="M 84.300808,114.57385 98.231734,98.388391"
       id="path49" /><path
       style="fill:#555555;fill-opacity:1;stroke:#555555;stroke-width:0.2;stroke-dasharray:none;stroke-opacity:1"
       d="m 89.057532,113.32513 8.787032,-0.0287"
       id="path50" /><path
       style="fill:#555555;fill-opacity:1;stroke:#555555;stroke-width:0.2;stroke-dasharray:none;stroke-opacity:1"
       d="M 69.995972,128.95704 98.100069,128.7669"
       id="path51" /><path
       style="fill:#555555;fill-opacity:1;stroke:#555555;stroke-width:0.2;stroke-dasharray:none;stroke-opacity:1"
       d="m 74.672062,130.09189 22.799415,-1.05652"
       id="path52" /></g></svg>
