<?xml version="1.0" encoding="UTF-8" standalone="no"?>
<!-- Created with Inkscape (http://www.inkscape.org/) -->

<svg
   width="210mm"
   height="297mm"
   viewBox="0 0 210 297"
   version="1.1"
   id="svg1"
   xml:space="preserve"
   inkscape:version="1.3 (0e150ed6c4, 2023-07-21)"
   sodipodi:docname="schleppbeine_dorsal.svg"
   inkscape:export-filename="schleppbeine_dorsal.png"
   inkscape:export-xdpi="259.52197"
   inkscape:export-ydpi="259.52197"
   xmlns:inkscape="http://www.inkscape.org/namespaces/inkscape"
   xmlns:sodipodi="http://sodipodi.sourceforge.net/DTD/sodipodi-0.dtd"
   xmlns="http://www.w3.org/2000/svg"
   xmlns:svg="http://www.w3.org/2000/svg"><sodipodi:namedview
     id="namedview1"
     pagecolor="#505050"
     bordercolor="#eeeeee"
     borderopacity="1"
     inkscape:showpageshadow="0"
     inkscape:pageopacity="0"
     inkscape:pagecheckerboard="0"
     inkscape:deskcolor="#505050"
     inkscape:document-units="mm"
     inkscape:zoom="1.7675425"
     inkscape:cx="261.94562"
     inkscape:cy="261.37986"
     inkscape:window-width="950"
     inkscape:window-height="1041"
     inkscape:window-x="3"
     inkscape:window-y="32"
     inkscape:window-maximized="1"
     inkscape:current-layer="layer3"
     inkscape:export-bgcolor="#ffffffff" /><defs
     id="defs1" /><g
     inkscape:groupmode="layer"
     id="layer3"
     inkscape:label="Schleppbeine dorsal"><path
       style="fill:none;stroke:#000000;stroke-width:0.679;stroke-dasharray:none;stroke-opacity:1;stroke-dashoffset:0"
       d="m 92.448624,43.780839 -0.160825,3.481903 c 1.741521,4.530752 3.261853,17.526093 0.458356,22.30036 0.05084,0.992934 0.362928,2.966636 0.396344,3.866951 0.515733,13.895331 -1.098043,17.789024 -1.953267,17.80887 0.910298,3.289353 0.08001,8.206352 0.109024,12.319807 l -0.687211,1.01853 -0.195337,4.46666 -0.03458,0.47972 c -0.423322,1.02551 -1.034192,1.20137 -1.800637,0.67245 -1.295378,-0.83215 -1.28002,-1.42437 -1.619503,-2.08154 l -1.009855,-3.29154 c -1.64372,-1.46344 -1.542649,-2.39605 -1.382699,-3.31075 -0.237879,-3.364722 -1.241638,-5.386791 -0.488219,-10.489338 -2.461725,-0.374223 -1.680609,-6.914135 -1.921581,-13.64379 -0.04352,-1.215321 0.648324,-4.948481 0.724437,-5.856415 l 0.07886,-1.511806 -2.092501,0.96806 -0.641744,0.05778 0.05035,-1.208886 1.341065,-2.872918 c -0.02012,-2.968543 -0.188662,-6.301025 -0.260905,-9.244729 -0.09427,-3.841096 -0.02458,-7.020248 0.752843,-7.865159 l 0.05118,-1.356735"
       id="path2"
       sodipodi:nodetypes="cccsccccccccccsccccccscc" /><path
       style="fill:none;stroke:#000000;stroke-width:0.679;stroke-dasharray:none;stroke-opacity:1;stroke-dashoffset:0"
       d="m 69.387883,46.275438 c 0.584344,2.246659 0.155253,2.637578 -0.05122,3.560872 -2.110551,3.247666 -1.731107,7.446952 -2.2714,11.359818 -1.086131,7.86589 -0.687877,9.872408 0.231626,10.786971 -2.035898,7.904787 -0.57677,22.331929 1.254935,22.040093 -0.105676,3.641559 1.406167,7.203858 1.431538,9.810308 0.01321,1.35649 0.265716,2.18596 0.667099,3.08798 l 0.755223,0.52898 c 0.792123,2.48519 1.654133,3.9529 3.136033,5.97625 1.164674,0.53256 1.796608,0.13735 2.113,-0.80739 0.126129,-0.61636 -0.02946,-1.12188 -0.190189,-1.71003 l -0.311127,-4.13666 c 1.151201,-1.42069 0.462707,-2.65944 0.338053,-3.76749 -0.144393,-1.2835 0.146353,-6.435209 -0.452844,-9.532986 2.310445,-1.539574 1.159139,-8.04392 1.818149,-12.948338 0.376373,-2.80098 -0.634563,-5.561991 -0.664074,-7.678365 1.301577,0.772516 2.065853,0.839072 2.536256,1.097674 0.127644,0.07017 -0.624364,-2.422318 -1.22944,-4.241196 0.606021,-6.742724 2.415025,-12.267895 0.992383,-21.063844"
       id="path3"
       sodipodi:nodetypes="ccsccsccccccscscscc" /><path
       style="fill:none;stroke:#000000;stroke-width:0.479;stroke-dasharray:none;stroke-opacity:1;stroke-dashoffset:0"
       d="m 83.056314,69.966957 0.749318,-0.632794 c 2.014587,-0.0018 3.601863,-0.224459 4.490282,-0.808121 1.748745,0.299322 3.789673,0.688079 4.618348,0.705772"
       id="path4"
       sodipodi:nodetypes="cccc" /><path
       style="fill:none;stroke:#000000;stroke-width:0.479;stroke-dasharray:none;stroke-opacity:1;stroke-dashoffset:0"
       d="m 67.018486,71.526176 c 2.340965,0.08244 3.440896,-0.2277 4.005488,-0.707194 1.622426,0.351232 3.168612,1.512617 4.871925,1.004286 l 1.300215,0.990943"
       id="path5"
       sodipodi:nodetypes="cccc" /><path
       style="fill:none;stroke:#000000;stroke-width:0.479;stroke-dasharray:none;stroke-opacity:1;stroke-dashoffset:0"
       d="m 84.116074,90.984794 c 1.346613,0.549701 2.772254,0.273289 4.216055,-0.192921 0.960979,0.244002 1.921957,0.792098 2.882936,0.39627"
       id="path6"
       sodipodi:nodetypes="ccc" /><path
       style="fill:none;stroke:#000000;stroke-width:0.479;stroke-dasharray:none;stroke-opacity:1;stroke-dashoffset:0"
       d="m 85.957627,104.85098 c 1.59432,0.63107 3.14822,0.22502 4.698674,-0.26941"
       id="path7"
       sodipodi:nodetypes="cc" /><path
       style="fill:none;stroke:#000000;stroke-width:0.17928349;stroke-dasharray:none;stroke-opacity:1;stroke-dashoffset:0"
       d="m 88.404183,110.07027 c 0.923019,0.22792 1.502368,-0.17879 1.989755,-0.75532"
       id="path8"
       sodipodi:nodetypes="cc" /><path
       style="fill:none;stroke:#000000;stroke-width:0.479;stroke-dasharray:none;stroke-opacity:1;stroke-dashoffset:0"
       d="m 74.115987,112.84771 c 1.197184,0.32418 1.951656,-0.062 2.436332,-1.61629"
       id="path9"
       sodipodi:nodetypes="cc" /><path
       style="fill:none;stroke:#000000;stroke-width:0.479;stroke-dasharray:none;stroke-opacity:1;stroke-dashoffset:0"
       d="m 71.342868,107.41017 c 2.25164,0.60438 3.832346,0.31 4.779031,-0.63452 l -0.02152,0.004"
       id="path10"
       sodipodi:nodetypes="ccc" /><path
       style="fill:none;stroke:#000000;stroke-width:0.479;stroke-dasharray:none;stroke-opacity:1;stroke-dashoffset:0"
       d="m 68.581386,94.002164 c 1.135237,0.137366 2.118633,-0.01777 2.505046,-1.014599 1.705139,1.349338 3.339734,1.257927 4.940358,0.472721 l -0.02206,0.01152"
       id="path11"
       sodipodi:nodetypes="cccc" /><path
       style="fill:none;stroke:#000000;stroke-width:0.272;stroke-dasharray:none;stroke-opacity:1;stroke-dashoffset:0"
       d="m 70.937901,46.552141 c -0.76185,-0.360595 -1.445634,-0.810757 -2.453078,-0.889576 -1.189832,-3.187115 -1.694016,-6.641087 -1.724265,-9.88882 v 0"
       id="path12"
       sodipodi:nodetypes="cccc" /><path
       style="fill:none;stroke:#000000;stroke-width:0.272;stroke-dasharray:none;stroke-opacity:1;stroke-dashoffset:0"
       d="m 92.442651,43.687913 c 0.342615,-0.3057 0.336436,-0.551817 1.389377,-1.06978 0.526987,-1.640906 0.135614,-4.312758 -0.114382,-6.8259"
       id="path13"
       sodipodi:nodetypes="ccc" /><path
       style="fill:none;stroke:#000000;stroke-width:0.272;stroke-dasharray:none;stroke-opacity:1;stroke-dashoffset:0"
       d="M 70.820146,71.060063 C 65.79371,66.199001 69.561102,58.119708 69.332173,51.502928"
       id="path14"
       sodipodi:nodetypes="cc" /><path
       style="fill:none;stroke:#000000;stroke-width:0.272;stroke-dasharray:none;stroke-opacity:1;stroke-dashoffset:0"
       d="m 89.382075,67.917447 c 5.558926,-3.49317 2.316781,-11.861377 2.76992,-18.182714"
       id="path15"
       sodipodi:nodetypes="cc" /><path
       style="fill:none;stroke:#000000;stroke-width:0.272;stroke-dasharray:none;stroke-opacity:1;stroke-dashoffset:0"
       d="m 90.893808,70.200742 c 1.024893,7.497905 1.330069,14.364063 -0.749606,19.136852 l 0.0569,-0.11395"
       id="path16"
       sodipodi:nodetypes="ccc" /><path
       style="fill:none;stroke:#000000;stroke-width:0.272;stroke-dasharray:none;stroke-opacity:1;stroke-dashoffset:0"
       d="m 69.114674,71.847854 c -1.839325,3.179943 -2.299426,14.236113 0.461694,20.223578"
       id="path17"
       sodipodi:nodetypes="cc" /><path
       style="fill:none;stroke:#000000;stroke-width:0.172;stroke-dasharray:none;stroke-opacity:1;stroke-dashoffset:0"
       d="m 82.472603,51.463562 -0.483647,0.561183 0.653303,0.118172 -0.0283,-4.57e-4"
       id="path18" /><path
       style="fill:none;stroke:#000000;stroke-width:0.172;stroke-dasharray:none;stroke-opacity:1;stroke-dashoffset:0"
       d="m 81.686909,50.438688 -0.565747,0.842346 0.468984,-0.08155"
       id="path19" /><path
       style="fill:none;stroke:#000000;stroke-width:0.172;stroke-dasharray:none;stroke-opacity:1;stroke-dashoffset:0"
       d="m 81.268265,54.524566 -0.724108,1.357993 0.783037,-0.212313"
       id="path20"
       sodipodi:nodetypes="ccc" /><path
       style="fill:none;stroke:#000000;stroke-width:0.172;stroke-dasharray:none;stroke-opacity:1;stroke-dashoffset:0"
       d="m 81.59469,57.730195 -0.661379,0.882098 0.826912,-0.06564"
       id="path21"
       sodipodi:nodetypes="ccc" /><path
       style="fill:none;stroke:#000000;stroke-width:0.172;stroke-dasharray:none;stroke-opacity:1;stroke-dashoffset:0"
       d="m 81.366446,59.315498 c 0,0.07709 -0.30981,2.231392 -0.30981,2.231392 l -0.939132,1.430023 0.720747,-0.170123 c 0.488967,-0.0375 0.514617,0.953401 0.738079,1.505237"
       id="path22"
       sodipodi:nodetypes="ccccc" /><path
       style="fill:none;stroke:#000000;stroke-width:0.172;stroke-dasharray:none;stroke-opacity:1;stroke-dashoffset:0"
       d="m 78.944984,66.487256 c 0,0.07762 0.506776,1.7951 0.506776,1.7951 0.132497,0.367945 0.07688,0.586189 0.08695,0.856702 l -0.255203,-0.450126 c -0.308307,-0.273638 -0.486158,-0.16098 -0.648637,-0.0028"
       id="path23"
       sodipodi:nodetypes="ccccc" /><path
       style="fill:none;stroke:#000000;stroke-width:0.172;stroke-dasharray:none;stroke-opacity:1;stroke-dashoffset:0"
       d="m 79.278046,63.972547 0.06722,0.600751 c 0.488328,0.299135 0.529504,0.989391 0.747625,1.505563 l -0.327963,-0.239705 c -0.467015,-0.07193 -0.648033,0.0994 -0.832513,0.267795"
       id="path24"
       sodipodi:nodetypes="ccccc" /><path
       style="fill:none;stroke:#000000;stroke-width:0.172;stroke-dasharray:none;stroke-opacity:1;stroke-dashoffset:0"
       d="m 79.976809,57.862563 0.579546,1.204635 -0.705943,-0.145274 v 0"
       id="path25" /><path
       style="fill:none;stroke:#000000;stroke-width:0.172;stroke-dasharray:none;stroke-opacity:1;stroke-dashoffset:0"
       d="m 78.941378,60.392548 0.531007,0.624486 -0.538826,0.297609"
       id="path26" /><path
       style="fill:none;stroke:#000000;stroke-width:0.172;stroke-dasharray:none;stroke-opacity:1;stroke-dashoffset:0"
       d="m 78.828924,53.007103 0.538911,0.64311 -0.541232,0.2824"
       id="path27" /><path
       style="fill:none;stroke:#000000;stroke-width:0.272;stroke-dasharray:none;stroke-opacity:1;stroke-dashoffset:0"
       d="m 80.268326,70.109186 -0.37974,0.474793 0.359718,-0.109702"
       id="path28" /><path
       style="fill:none;stroke:#000000;stroke-width:0.07171361;stroke-dasharray:none;stroke-opacity:1;stroke-dashoffset:0"
       d="m 80.226528,70.761011 -0.24455,0.400937 0.426014,-0.06978"
       id="path29" /><path
       style="fill:none;stroke:#000000;stroke-width:0.272;stroke-dasharray:none;stroke-opacity:1;stroke-dashoffset:0"
       d="m 80.769512,69.946427 -0.209435,0.550786 0.477226,-0.114614"
       id="path30" /><path
       style="fill:none;stroke:#000000;stroke-width:0.272;stroke-dasharray:none;stroke-opacity:1;stroke-dashoffset:0"
       d="m 78.87102,72.933014 0.438265,0.235087 0.01443,-0.588605"
       id="path31" /><path
       style="fill:none;stroke:#000000;stroke-width:0.272;stroke-dasharray:none;stroke-opacity:1;stroke-dashoffset:0"
       d="m 79.04964,73.155665 0.09892,0.339957 -0.510084,-0.0618"
       id="path32" /><path
       style="display:inline;fill:none;stroke:#000000;stroke-width:0.679;stroke-dasharray:none;stroke-opacity:1;stroke-dashoffset:0"
       d="m 65.954614,35.656743 c 0.396161,3.479208 -0.192926,8.01488 1.44752,10.348487 l 1.924122,0.220511 c 1.137142,0.509573 2.373268,0.353882 3.40803,0.808969 7.612252,3.347859 13.861911,1.30073 19.348674,-3.299422 0.934476,-0.03617 1.410964,0.198483 2.780685,-1.204881 0.664438,-1.092506 0.11499,-4.112583 -0.04611,-6.51599 h -0.09047"
       id="path1"
       sodipodi:nodetypes="cccscccc" /></g><g
     inkscape:groupmode="layer"
     id="layer4"
     inkscape:label="Beschriftung"
     style="display:inline"><text
       xml:space="preserve"
       style="font-size:3.175px;fill:none;stroke:#000000;stroke-width:0.2;stroke-dasharray:none;stroke-opacity:1"
       x="106.11963"
       y="31.026688"
       id="text32"><tspan
         sodipodi:role="line"
         id="tspan32"
         style="fill:#555555;fill-opacity:1;stroke:#555555;stroke-width:0.2;stroke-opacity:1"
         x="106.11963"
         y="31.026688">21. Tergit</tspan></text><text
       xml:space="preserve"
       style="font-size:3.175px;fill:none;stroke:#000000;stroke-width:0.2;stroke-dasharray:none;stroke-opacity:1"
       x="106.11963"
       y="35.260025"
       id="text33"><tspan
         sodipodi:role="line"
         id="tspan33"
         style="fill:#555555;fill-opacity:1;stroke:#555555;stroke-width:0.2;stroke-opacity:1"
         x="106.11963"
         y="35.260025">Berandung</tspan></text><text
       xml:space="preserve"
       style="font-size:3.175px;fill:none;stroke:#000000;stroke-width:0.2;stroke-dasharray:none;stroke-opacity:1"
       x="106.11963"
       y="50.605873"
       id="text34"><tspan
         sodipodi:role="line"
         id="tspan34"
         style="fill:#555555;fill-opacity:1;stroke:#555555;stroke-width:0.2;stroke-opacity:1"
         x="106.11963"
         y="50.605873">Prefemur</tspan></text><text
       xml:space="preserve"
       style="font-size:3.175px;fill:none;stroke:#000000;stroke-width:0.2;stroke-dasharray:none;stroke-opacity:1"
       x="106.11963"
       y="55.368378"
       id="text35"><tspan
         sodipodi:role="line"
         id="tspan35"
         style="fill:#555555;fill-opacity:1;stroke:#555555;stroke-width:0.2;stroke-opacity:1"
         x="106.11963"
         y="55.368378">Bedornung</tspan></text><text
       xml:space="preserve"
       style="font-size:3.175px;fill:none;stroke:#000000;stroke-width:0.2;stroke-dasharray:none;stroke-opacity:1"
       x="106.11963"
       y="69.126724"
       id="text36"><tspan
         sodipodi:role="line"
         id="tspan36"
         style="fill:#555555;fill-opacity:1;stroke:#555555;stroke-width:0.2;stroke-opacity:1"
         x="106.11963"
         y="69.126724">Prefemuralfortsatz</tspan></text><text
       xml:space="preserve"
       style="font-size:3.175px;fill:none;stroke:#000000;stroke-width:0.2;stroke-dasharray:none;stroke-opacity:1"
       x="106.11963"
       y="81.826736"
       id="text37"><tspan
         sodipodi:role="line"
         id="tspan37"
         style="fill:#555555;fill-opacity:1;stroke:#555555;stroke-width:0.2;stroke-opacity:1"
         x="106.11963"
         y="81.826736">Femur</tspan></text><text
       xml:space="preserve"
       style="font-size:3.175px;fill:none;stroke:#000000;stroke-width:0.2;stroke-dasharray:none;stroke-opacity:1"
       x="106.11963"
       y="97.172585"
       id="text38"><tspan
         sodipodi:role="line"
         id="tspan38"
         style="fill:#555555;fill-opacity:1;stroke:#555555;stroke-width:0.2;stroke-opacity:1"
         x="106.11963"
         y="97.172585">Tibia</tspan></text><text
       xml:space="preserve"
       style="font-size:3.175px;fill:none;stroke:#000000;stroke-width:0.2;stroke-dasharray:none;stroke-opacity:1"
       x="106.11963"
       y="106.69755"
       id="text39"><tspan
         sodipodi:role="line"
         id="tspan39"
         style="fill:#555555;fill-opacity:1;stroke:#555555;stroke-width:0.2;stroke-opacity:1"
         x="106.11963"
         y="106.69755">Tarsus</tspan></text><text
       xml:space="preserve"
       style="font-size:3.175px;fill:none;stroke:#000000;stroke-width:0.2;stroke-dasharray:none;stroke-opacity:1"
       x="106.11963"
       y="61.718384"
       id="text40"><tspan
         sodipodi:role="line"
         id="tspan40"
         style="fill:#555555;fill-opacity:1;stroke:#555555;stroke-width:0.2;stroke-opacity:1"
         x="106.11963"
         y="61.718384">Rille</tspan></text><path
       style="fill:#555555;fill-opacity:1;stroke:#555555;stroke-width:0.2;stroke-dasharray:none;stroke-opacity:1"
       d="M 83.490868,38.826376 105.08163,30.284893"
       id="path40" /><path
       style="fill:#555555;fill-opacity:1;stroke:#555555;stroke-width:0.2;stroke-dasharray:none;stroke-opacity:1"
       d="M 94.518167,39.442085 105.22189,34.687301"
       id="path41" /><path
       style="fill:#555555;fill-opacity:1;stroke:#555555;stroke-width:0.2;stroke-dasharray:none;stroke-opacity:1"
       d="m 87.8667,49.668318 17.29261,0.05362"
       id="path42" /><path
       style="fill:#555555;fill-opacity:1;stroke:#555555;stroke-width:0.2;stroke-dasharray:none;stroke-opacity:1"
       d="M 81.254424,55.28814 105.66451,54.410638"
       id="path43" /><path
       style="fill:#555555;fill-opacity:1;stroke:#555555;stroke-width:0.2;stroke-dasharray:none;stroke-opacity:1"
       d="M 92.849506,61.15201 105.40483,60.906045"
       id="path44" /><path
       style="fill:#555555;fill-opacity:1;stroke:#555555;stroke-width:0.2;stroke-dasharray:none;stroke-opacity:1"
       d="m 81.71966,69.044041 23.28773,-0.738492"
       id="path45" /><path
       style="fill:#555555;fill-opacity:1;stroke:#555555;stroke-width:0.2;stroke-dasharray:none;stroke-opacity:1"
       d="M 79.793387,72.875697 105.22547,68.3462"
       id="path46" /><path
       style="fill:#555555;fill-opacity:1;stroke:#555555;stroke-width:0.2;stroke-dasharray:none;stroke-opacity:1"
       d="m 87.881303,80.282393 17.665817,0.359333"
       id="path47" /><path
       style="fill:#555555;fill-opacity:1;stroke:#555555;stroke-width:0.2;stroke-dasharray:none;stroke-opacity:1"
       d="M 87.690192,96.876427 105.31542,96.509"
       id="path48" /><path
       style="fill:#555555;fill-opacity:1;stroke:#555555;stroke-width:0.2;stroke-dasharray:none;stroke-opacity:1"
       d="m 88.214506,107.08182 17.408684,-0.87448"
       id="path49" /></g></svg>
